<svg xmlns="http://www.w3.org/2000/svg" width="256" height="256" viewBox="0 0 1024 1024" role="img" aria-label="Murmur app icon"><defs><linearGradient id="fldmi5yumw" x1="0" y1="0" x2="0" y2="1"><stop offset="0" stop-color="#363a42"></stop><stop offset="1" stop-color="#17191d"></stop></linearGradient><linearGradient id="barmi5yumw" x1="0" y1="0" x2="0" y2="1"><stop offset="0" stop-color="#ffffff"></stop><stop offset="0.45" stop-color="#d8e6fe"></stop><stop offset="1" stop-color="#5a93f3"></stop></linearGradient><radialGradient id="glwmi5yumw" cx="0.5" cy="0.52" r="0.5"><stop offset="0" stop-color="#6aa0f6" stop-opacity="0.45"></stop><stop offset="1" stop-color="#6aa0f6" stop-opacity="0"></stop></radialGradient><linearGradient id="spcmi5yumw" x1="0" y1="0" x2="0" y2="1"><stop offset="0" stop-color="rgba(255,255,255,0.13)"></stop><stop offset="0.46" stop-color="rgba(255,255,255,0)"></stop></linearGradient><linearGradient id="edgmi5yumw" x1="0" y1="0" x2="0" y2="1"><stop offset="0" stop-color="rgba(255,255,255,0.17)"></stop><stop offset="1" stop-color="rgba(0,0,0,0.32)"></stop></linearGradient><clipPath id="clpmi5yumw"><path d="M984.00 512.00 L983.91 598.81 L983.63 632.73 L983.17 658.40 L982.53 679.82 L981.71 698.52 L980.70 715.29 L979.50 730.59 L978.12 744.72 L976.55 757.87 L974.80 770.20 L972.85 781.82 L970.72 792.81 L968.40 803.25 L965.89 813.18 L963.18 822.65 L960.28 831.69 L957.19 840.34 L953.89 848.63 L950.40 856.56 L946.70 864.17 L942.80 871.47 L938.69 878.48 L934.37 885.20 L929.83 891.64 L925.07 897.83 L920.09 903.76 L914.88 909.44 L909.44 914.88 L903.76 920.09 L897.83 925.07 L891.64 929.83 L885.20 934.37 L878.48 938.69 L871.47 942.80 L864.17 946.70 L856.56 950.40 L848.63 953.89 L840.34 957.19 L831.69 960.28 L822.65 963.18 L813.18 965.89 L803.25 968.40 L792.81 970.72 L781.82 972.85 L770.20 974.80 L757.87 976.55 L744.72 978.12 L730.59 979.50 L715.29 980.70 L698.52 981.71 L679.82 982.53 L658.40 983.17 L632.73 983.63 L598.81 983.91 L512.00 984.00 L425.19 983.91 L391.27 983.63 L365.60 983.17 L344.18 982.53 L325.48 981.71 L308.71 980.70 L293.41 979.50 L279.28 978.12 L266.13 976.55 L253.80 974.80 L242.18 972.85 L231.19 970.72 L220.75 968.40 L210.82 965.89 L201.35 963.18 L192.31 960.28 L183.66 957.19 L175.37 953.89 L167.44 950.40 L159.83 946.70 L152.53 942.80 L145.52 938.69 L138.80 934.37 L132.36 929.83 L126.17 925.07 L120.24 920.09 L114.56 914.88 L109.12 909.44 L103.91 903.76 L98.93 897.83 L94.17 891.64 L89.63 885.20 L85.31 878.48 L81.20 871.47 L77.30 864.17 L73.60 856.56 L70.11 848.63 L66.81 840.34 L63.72 831.69 L60.82 822.65 L58.11 813.18 L55.60 803.25 L53.28 792.81 L51.15 781.82 L49.20 770.20 L47.45 757.87 L45.88 744.72 L44.50 730.59 L43.30 715.29 L42.29 698.52 L41.47 679.82 L40.83 658.40 L40.37 632.73 L40.09 598.81 L40.00 512.00 L40.09 425.19 L40.37 391.27 L40.83 365.60 L41.47 344.18 L42.29 325.48 L43.30 308.71 L44.50 293.41 L45.88 279.28 L47.45 266.13 L49.20 253.80 L51.15 242.18 L53.28 231.19 L55.60 220.75 L58.11 210.82 L60.82 201.35 L63.72 192.31 L66.81 183.66 L70.11 175.37 L73.60 167.44 L77.30 159.83 L81.20 152.53 L85.31 145.52 L89.63 138.80 L94.17 132.36 L98.93 126.17 L103.91 120.24 L109.12 114.56 L114.56 109.12 L120.24 103.91 L126.17 98.93 L132.36 94.17 L138.80 89.63 L145.52 85.31 L152.53 81.20 L159.83 77.30 L167.44 73.60 L175.37 70.11 L183.66 66.81 L192.31 63.72 L201.35 60.82 L210.82 58.11 L220.75 55.60 L231.19 53.28 L242.18 51.15 L253.80 49.20 L266.13 47.45 L279.28 45.88 L293.41 44.50 L308.71 43.30 L325.48 42.29 L344.18 41.47 L365.60 40.83 L391.27 40.37 L425.19 40.09 L512.00 40.00 L598.81 40.09 L632.73 40.37 L658.40 40.83 L679.82 41.47 L698.52 42.29 L715.29 43.30 L730.59 44.50 L744.72 45.88 L757.87 47.45 L770.20 49.20 L781.82 51.15 L792.81 53.28 L803.25 55.60 L813.18 58.11 L822.65 60.82 L831.69 63.72 L840.34 66.81 L848.63 70.11 L856.56 73.60 L864.17 77.30 L871.47 81.20 L878.48 85.31 L885.20 89.63 L891.64 94.17 L897.83 98.93 L903.76 103.91 L909.44 109.12 L914.88 114.56 L920.09 120.24 L925.07 126.17 L929.83 132.36 L934.37 138.80 L938.69 145.52 L942.80 152.53 L946.70 159.83 L950.40 167.44 L953.89 175.37 L957.19 183.66 L960.28 192.31 L963.18 201.35 L965.89 210.82 L968.40 220.75 L970.72 231.19 L972.85 242.18 L974.80 253.80 L976.55 266.13 L978.12 279.28 L979.50 293.41 L980.70 308.71 L981.71 325.48 L982.53 344.18 L983.17 365.60 L983.63 391.27 L983.91 425.19 L984.00 512.00 Z"></path></clipPath></defs><path d="M984.00 512.00 L983.91 598.81 L983.63 632.73 L983.17 658.40 L982.53 679.82 L981.71 698.52 L980.70 715.29 L979.50 730.59 L978.12 744.72 L976.55 757.87 L974.80 770.20 L972.85 781.82 L970.72 792.81 L968.40 803.25 L965.89 813.18 L963.18 822.65 L960.28 831.69 L957.19 840.34 L953.89 848.63 L950.40 856.56 L946.70 864.17 L942.80 871.47 L938.69 878.48 L934.37 885.20 L929.83 891.64 L925.07 897.83 L920.09 903.76 L914.88 909.44 L909.44 914.88 L903.76 920.09 L897.83 925.07 L891.64 929.83 L885.20 934.37 L878.48 938.69 L871.47 942.80 L864.17 946.70 L856.56 950.40 L848.63 953.89 L840.34 957.19 L831.69 960.28 L822.65 963.18 L813.18 965.89 L803.25 968.40 L792.81 970.72 L781.82 972.85 L770.20 974.80 L757.87 976.55 L744.72 978.12 L730.59 979.50 L715.29 980.70 L698.52 981.71 L679.82 982.53 L658.40 983.17 L632.73 983.63 L598.81 983.91 L512.00 984.00 L425.19 983.91 L391.27 983.63 L365.60 983.17 L344.18 982.53 L325.48 981.71 L308.71 980.70 L293.41 979.50 L279.28 978.12 L266.13 976.55 L253.80 974.80 L242.18 972.85 L231.19 970.72 L220.75 968.40 L210.82 965.89 L201.35 963.18 L192.31 960.28 L183.66 957.19 L175.37 953.89 L167.44 950.40 L159.83 946.70 L152.53 942.80 L145.52 938.69 L138.80 934.37 L132.36 929.83 L126.17 925.07 L120.24 920.09 L114.56 914.88 L109.12 909.44 L103.91 903.76 L98.93 897.83 L94.17 891.64 L89.63 885.20 L85.31 878.48 L81.20 871.47 L77.30 864.17 L73.60 856.56 L70.11 848.63 L66.81 840.34 L63.72 831.69 L60.82 822.65 L58.11 813.18 L55.60 803.25 L53.28 792.81 L51.15 781.82 L49.20 770.20 L47.45 757.87 L45.88 744.72 L44.50 730.59 L43.30 715.29 L42.29 698.52 L41.47 679.82 L40.83 658.40 L40.37 632.73 L40.09 598.81 L40.00 512.00 L40.09 425.19 L40.37 391.27 L40.83 365.60 L41.47 344.18 L42.29 325.48 L43.30 308.71 L44.50 293.41 L45.88 279.28 L47.45 266.13 L49.20 253.80 L51.15 242.18 L53.28 231.19 L55.60 220.75 L58.11 210.82 L60.82 201.35 L63.72 192.31 L66.81 183.66 L70.11 175.37 L73.60 167.44 L77.30 159.83 L81.20 152.53 L85.31 145.52 L89.63 138.80 L94.17 132.36 L98.93 126.17 L103.91 120.24 L109.12 114.56 L114.56 109.12 L120.24 103.91 L126.17 98.93 L132.36 94.17 L138.80 89.63 L145.52 85.31 L152.53 81.20 L159.83 77.30 L167.44 73.60 L175.37 70.11 L183.66 66.81 L192.31 63.72 L201.35 60.82 L210.82 58.11 L220.75 55.60 L231.19 53.28 L242.18 51.15 L253.80 49.20 L266.13 47.45 L279.28 45.88 L293.41 44.50 L308.71 43.30 L325.48 42.29 L344.18 41.47 L365.60 40.83 L391.27 40.37 L425.19 40.09 L512.00 40.00 L598.81 40.09 L632.73 40.37 L658.40 40.83 L679.82 41.47 L698.52 42.29 L715.29 43.30 L730.59 44.50 L744.72 45.88 L757.87 47.45 L770.20 49.20 L781.82 51.15 L792.81 53.28 L803.25 55.60 L813.18 58.11 L822.65 60.82 L831.69 63.72 L840.34 66.81 L848.63 70.11 L856.56 73.60 L864.17 77.30 L871.47 81.20 L878.48 85.31 L885.20 89.63 L891.64 94.17 L897.83 98.93 L903.76 103.91 L909.44 109.12 L914.88 114.56 L920.09 120.24 L925.07 126.17 L929.83 132.36 L934.37 138.80 L938.69 145.52 L942.80 152.53 L946.70 159.83 L950.40 167.44 L953.89 175.37 L957.19 183.66 L960.28 192.31 L963.18 201.35 L965.89 210.82 L968.40 220.75 L970.72 231.19 L972.85 242.18 L974.80 253.80 L976.55 266.13 L978.12 279.28 L979.50 293.41 L980.70 308.71 L981.71 325.48 L982.53 344.18 L983.17 365.60 L983.63 391.27 L983.91 425.19 L984.00 512.00 Z" fill="url(#fldmi5yumw)"></path><g clip-path="url(#clpmi5yumw)"><ellipse cx="512" cy="512" rx="392" ry="408" fill="url(#glwmi5yumw)"></ellipse><rect x="0" y="0" width="1024" height="1024" fill="url(#spcmi5yumw)"></rect></g><g transform="translate(512 512) scale(1.076893203883495) translate(-512 -512)"><rect x="151.0" y="392.0" width="98" height="240.0" rx="49" fill="url(#barmi5yumw)"></rect><rect x="307.0" y="314.0" width="98" height="396.0" rx="49" fill="url(#barmi5yumw)"></rect><rect x="463.0" y="230.0" width="98" height="564.0" rx="49" fill="url(#barmi5yumw)"></rect><rect x="619.0" y="314.0" width="98" height="396.0" rx="49" fill="url(#barmi5yumw)"></rect><rect x="775.0" y="392.0" width="98" height="240.0" rx="49" fill="url(#barmi5yumw)"></rect></g><path d="M984.00 512.00 L983.91 598.81 L983.63 632.73 L983.17 658.40 L982.53 679.82 L981.71 698.52 L980.70 715.29 L979.50 730.59 L978.12 744.72 L976.55 757.87 L974.80 770.20 L972.85 781.82 L970.72 792.81 L968.40 803.25 L965.89 813.18 L963.18 822.65 L960.28 831.69 L957.19 840.34 L953.89 848.63 L950.40 856.56 L946.70 864.17 L942.80 871.47 L938.69 878.48 L934.37 885.20 L929.83 891.64 L925.07 897.83 L920.09 903.76 L914.88 909.44 L909.44 914.88 L903.76 920.09 L897.83 925.07 L891.64 929.83 L885.20 934.37 L878.48 938.69 L871.47 942.80 L864.17 946.70 L856.56 950.40 L848.63 953.89 L840.34 957.19 L831.69 960.28 L822.65 963.18 L813.18 965.89 L803.25 968.40 L792.81 970.72 L781.82 972.85 L770.20 974.80 L757.87 976.55 L744.72 978.12 L730.59 979.50 L715.29 980.70 L698.52 981.71 L679.82 982.53 L658.40 983.17 L632.73 983.63 L598.81 983.91 L512.00 984.00 L425.19 983.91 L391.27 983.63 L365.60 983.17 L344.18 982.53 L325.48 981.71 L308.71 980.70 L293.41 979.50 L279.28 978.12 L266.13 976.55 L253.80 974.80 L242.18 972.85 L231.19 970.72 L220.75 968.40 L210.82 965.89 L201.35 963.18 L192.31 960.28 L183.66 957.19 L175.37 953.89 L167.44 950.40 L159.83 946.70 L152.53 942.80 L145.52 938.69 L138.80 934.37 L132.36 929.83 L126.17 925.07 L120.24 920.09 L114.56 914.88 L109.12 909.44 L103.91 903.76 L98.93 897.83 L94.17 891.64 L89.63 885.20 L85.31 878.48 L81.20 871.47 L77.30 864.17 L73.60 856.56 L70.11 848.63 L66.81 840.34 L63.72 831.69 L60.82 822.65 L58.11 813.18 L55.60 803.25 L53.28 792.81 L51.15 781.82 L49.20 770.20 L47.45 757.87 L45.88 744.72 L44.50 730.59 L43.30 715.29 L42.29 698.52 L41.47 679.82 L40.83 658.40 L40.37 632.73 L40.09 598.81 L40.00 512.00 L40.09 425.19 L40.37 391.27 L40.83 365.60 L41.47 344.18 L42.29 325.48 L43.30 308.71 L44.50 293.41 L45.88 279.28 L47.45 266.13 L49.20 253.80 L51.15 242.18 L53.28 231.19 L55.60 220.75 L58.11 210.82 L60.82 201.35 L63.72 192.31 L66.81 183.66 L70.11 175.37 L73.60 167.44 L77.30 159.83 L81.20 152.53 L85.31 145.52 L89.63 138.80 L94.17 132.36 L98.93 126.17 L103.91 120.24 L109.12 114.56 L114.56 109.12 L120.24 103.91 L126.17 98.93 L132.36 94.17 L138.80 89.63 L145.52 85.31 L152.53 81.20 L159.83 77.30 L167.44 73.60 L175.37 70.11 L183.66 66.81 L192.31 63.72 L201.35 60.82 L210.82 58.11 L220.75 55.60 L231.19 53.28 L242.18 51.15 L253.80 49.20 L266.13 47.45 L279.28 45.88 L293.41 44.50 L308.71 43.30 L325.48 42.29 L344.18 41.47 L365.60 40.83 L391.27 40.37 L425.19 40.09 L512.00 40.00 L598.81 40.09 L632.73 40.37 L658.40 40.83 L679.82 41.47 L698.52 42.29 L715.29 43.30 L730.59 44.50 L744.72 45.88 L757.87 47.45 L770.20 49.20 L781.82 51.15 L792.81 53.28 L803.25 55.60 L813.18 58.11 L822.65 60.82 L831.69 63.72 L840.34 66.81 L848.63 70.11 L856.56 73.60 L864.17 77.30 L871.47 81.20 L878.48 85.31 L885.20 89.63 L891.64 94.17 L897.83 98.93 L903.76 103.91 L909.44 109.12 L914.88 114.56 L920.09 120.24 L925.07 126.17 L929.83 132.36 L934.37 138.80 L938.69 145.52 L942.80 152.53 L946.70 159.83 L950.40 167.44 L953.89 175.37 L957.19 183.66 L960.28 192.31 L963.18 201.35 L965.89 210.82 L968.40 220.75 L970.72 231.19 L972.85 242.18 L974.80 253.80 L976.55 266.13 L978.12 279.28 L979.50 293.41 L980.70 308.71 L981.71 325.48 L982.53 344.18 L983.17 365.60 L983.63 391.27 L983.91 425.19 L984.00 512.00 Z" fill="none" stroke="url(#edgmi5yumw)" stroke-width="2.5"></path></svg>